<?xml version="1.0" standalone="no"?>
<!DOCTYPE svg PUBLIC "-//W3C//DTD SVG 20010904//EN"
 "http://www.w3.org/TR/2001/REC-SVG-20010904/DTD/svg10.dtd">
<svg version="1.0" xmlns="http://www.w3.org/2000/svg"
 width="596.000000pt" height="596.000000pt" viewBox="0 0 596.000000 596.000000"
 preserveAspectRatio="xMidYMid meet">
<metadata>
Created by potrace 1.14, written by Peter Selinger 2001-2017
</metadata>
<g transform="translate(0.000000,596.000000) scale(0.100000,-0.100000)"
fill="#000000" stroke="none">
<path d="M1824 5450 c-84 -23 -168 -64 -234 -113 -101 -76 -126 -109 -276
-369 -58 -101 -123 -212 -144 -248 -156 -268 -157 -272 -122 -310 10 -11 105
-70 212 -131 205 -118 246 -132 275 -92 8 10 56 92 108 183 52 91 126 219 164
285 38 66 76 131 84 145 19 33 29 43 64 66 28 18 58 19 1019 20 928 0 992 -1
1026 -17 36 -18 50 -34 88 -101 90 -158 148 -257 164 -280 11 -16 16 -28 12
-28 -4 0 0 -8 8 -17 8 -10 46 -73 84 -140 71 -126 98 -152 142 -136 28 10 247
137 250 145 2 5 8 8 14 8 18 0 149 83 158 101 6 10 10 27 10 38 0 18 -41 97
-88 171 -9 14 -17 27 -17 30 0 3 -26 48 -57 100 -69 118 -194 333 -220 380
-56 99 -144 186 -251 248 -38 22 -166 68 -202 73 -11 1 -513 3 -1115 4 -1005
2 -1100 1 -1156 -15z"/>
<path d="M2255 4442 c-15 -3 -104 -52 -205 -112 -69 -41 -192 -110 -196 -110
-14 0 -33 -30 -37 -58 -4 -23 2 -42 19 -67 13 -20 24 -40 24 -45 0 -5 6 -15
13 -22 7 -7 18 -24 25 -38 6 -14 24 -46 40 -72 15 -26 60 -105 101 -175 119
-208 172 -277 251 -333 19 -13 37 -27 40 -31 3 -3 32 -20 65 -37 55 -27 79
-36 170 -59 36 -9 785 -14 799 -6 6 4 24 8 41 10 86 9 232 88 320 172 40 38
64 70 133 176 7 11 15 28 18 38 4 9 11 17 17 17 6 0 8 3 5 6 -4 3 4 21 17 40
13 19 30 48 37 64 7 17 16 30 20 30 5 0 8 4 8 9 0 13 82 155 94 163 6 4 8 8 4
8 -4 0 8 24 26 53 37 58 43 79 33 117 -6 25 -18 33 -127 92 -30 17 -60 34 -66
39 -6 5 -31 20 -55 33 -24 13 -60 33 -79 44 -62 37 -105 58 -115 57 -42 -4
-60 -29 -199 -268 -163 -281 -160 -276 -200 -302 -26 -17 -53 -19 -309 -20
-317 -1 -335 3 -378 73 -45 74 -59 98 -86 147 -15 28 -32 58 -38 67 -5 9 -37
63 -70 120 -32 57 -62 105 -66 108 -3 3 -9 15 -13 28 -9 26 -52 50 -81 44z"/>
<path d="M1555 3452 c-16 -3 -131 -66 -225 -122 -8 -5 -55 -32 -105 -61 -49
-28 -95 -59 -102 -68 -20 -27 -9 -63 51 -164 31 -53 56 -101 56 -106 0 -6 4
-11 9 -11 5 0 11 -8 14 -17 4 -10 17 -36 30 -58 14 -22 50 -85 82 -140 121
-209 189 -282 337 -356 97 -49 220 -72 371 -70 31 0 71 1 90 0 6 0 49 2 95 3
45 2 82 -1 82 -5 0 -5 5 -5 11 -1 11 6 91 9 114 4 6 -1 12 -2 15 -1 3 1 52 2
110 1 58 0 114 0 125 0 11 1 26 1 33 1 6 0 28 0 47 0 40 0 60 -1 78 -2 12 0
121 0 162 2 11 0 26 0 33 0 6 0 28 0 47 0 40 0 60 -1 78 -2 12 0 121 0 162 2
11 0 26 0 33 0 6 0 28 0 47 0 19 0 43 -1 53 -1 23 0 79 1 120 4 18 1 38 -2 44
-5 6 -4 21 -4 32 0 12 4 32 5 46 1 14 -4 37 -3 51 1 15 4 32 3 39 -1 7 -4 26
-4 41 0 17 5 31 5 35 -1 3 -5 9 -7 14 -4 5 3 48 7 97 10 187 9 372 106 486
257 49 65 350 593 352 619 1 14 -3 33 -9 41 -10 14 -314 195 -399 238 -33 17
-73 16 -91 -2 -7 -7 -39 -60 -71 -118 -33 -58 -63 -106 -67 -108 -4 -2 -8 -8
-8 -14 0 -6 -20 -44 -45 -85 -25 -40 -45 -75 -45 -78 0 -2 -16 -31 -36 -64
-21 -36 -51 -70 -73 -83 l-36 -23 -975 -1 c-763 0 -982 2 -1007 12 -32 13 -78
49 -78 62 -1 4 -12 25 -27 47 -14 23 -38 63 -52 90 -15 28 -31 57 -37 65 -36
58 -159 273 -159 279 0 13 -55 38 -75 33z"/>
<path d="M1505 1848 c-164 -43 -297 -137 -388 -272 -32 -47 -149 -247 -212
-361 -27 -48 -56 -98 -82 -140 -7 -11 -24 -42 -39 -70 -14 -27 -31 -55 -36
-62 -23 -29 -43 -80 -38 -98 12 -44 23 -52 345 -235 80 -46 96 -52 122 -45 29
7 45 24 68 70 8 17 27 51 43 76 15 25 86 148 157 273 72 124 139 237 150 249
49 55 -29 52 1384 52 1245 0 1307 -1 1343 -18 36 -18 48 -32 87 -99 10 -18 78
-136 151 -263 73 -126 143 -249 154 -272 12 -24 35 -50 53 -60 32 -17 33 -17
85 9 120 62 371 209 385 228 22 27 14 67 -24 132 -56 94 -82 140 -96 168 -6
14 -14 27 -17 30 -5 5 -10 13 -52 89 -32 57 -117 204 -128 221 -5 8 -21 37
-36 64 -14 27 -30 54 -35 60 -5 6 -24 30 -43 53 -28 35 -70 74 -143 133 -29
23 -144 71 -211 88 -70 18 -145 19 -1475 19 -1328 -1 -1406 -2 -1472 -19z"/>
</g>
</svg>
